<mxfile host="app.diagrams.net" modified="2023-08-12T01:25:52.717Z" agent="Mozilla/5.0 (Macintosh; Intel Mac OS X 10_15_7) AppleWebKit/537.36 (KHTML, like Gecko) Chrome/115.0.0.0 Safari/537.36" version="21.6.6" etag="2D62I6MIPlZ5dHj7b4fQ" type="github">
  <diagram name="Page-1" id="rN8Mh5toaN8fy2-m7Dmg">
    <mxGraphModel>
      <root>
        <mxCell id="0" />
        <mxCell id="1" parent="0" />
      </root>
    </mxGraphModel>
  </diagram>
</mxfile>
